<svg width="1440" height="741" viewBox="0 0 1440 741" fill="none" xmlns="http://www.w3.org/2000/svg">
<g clip-path="url(#clip0_3756_8701)">
<rect width="1440" height="741" fill="white"/>
<g filter="url(#filter0_f_3756_8701)">
<path fill-rule="evenodd" clip-rule="evenodd" d="M1235.76 -29.8685C1297.44 -41.1453 1369.12 -64.7547 1420.64 -28.9947C1472.76 7.18803 1463.98 86.8924 1488.37 145.494C1509.21 195.591 1552.74 237.184 1553.96 291.436C1555.19 346.013 1525.04 395.638 1495.02 441.223C1466.21 484.979 1427.49 519.271 1384.37 549.003C1338.39 580.709 1291.6 620.657 1235.76 619.992C1180.02 619.327 1140.09 568.24 1089.19 545.485C1031.25 519.584 952.009 528.361 915.158 476.666C878.679 425.493 898.388 353.541 908.089 291.436C916.771 235.863 936.4 183.229 968.239 136.874C998.524 92.7824 1040.79 60.4485 1086.17 32.1622C1132.78 3.11193 1181.75 -19.9916 1235.76 -29.8685Z" fill="#E55D8A"/>
</g>
<path d="M577 379.715L584.428 376.858L593 364.286V355.715L601.571 350.572L613 342.572L625 347.715L642.714 336.858L654.714 335.143L668.428 336.858L680.428 331.715L685.571 342.572L680.428 347.715L693.571 355.715H701L709.571 364.286L721 368.286L726.714 364.286V355.715H739.286L754.143 364.286H769H782.714L790.143 379.715L793.571 388.286L799.857 400.286L804.429 411.715V420.858L812.429 427.715L817 441.429L826.143 447.715L834.143 457.429L837.571 466.572L843.857 470.572L854.143 472.858L873.571 466.572V480.858L865 495.143L857 507.715L846.143 518.001L834.143 531.715L823.857 543.144L817 555.715L820.429 571.144L826.143 578.572V591.144V602.572L820.429 612.286L809.571 615.144L804.429 622.572L797 631.144L799.857 645.429L797 651.715L789 657.429L785 662.572V668.286L783.286 675.144L769.571 691.715L757 700.286L746.143 705.429L740.429 700.286L733 705.429H723.286L719.286 700.286V691.715L714.714 681.429L705.571 670.572V662.572L702.143 645.429L697 631.144L689.571 619.715V609.429L693.571 599.715L697 588.286V578.572V571.144L693.571 562.572L689.571 550.001L685.571 545.429L680.428 537.429V528.286V514.572V507.715L672.428 501.429H661.571L657 495.143L649.571 491.143L639.857 495.143L627.857 498.572H613L598.143 501.429L588.428 498.572L574.143 487.143L570.143 480.858L565 472.858L560.428 466.572L557.571 462.572V455.143L553.571 449.429L557.571 442.572V430.572V424.858V418.001V410.001L565 400.286L570.143 388.286L577 379.715Z" stroke="#BDBDBD" stroke-opacity="0.7" stroke-width="1.94293" stroke-dasharray="1.3 1.3"/>
<path d="M862.716 595.143L851.858 607.143L841.001 613.429V628.286L835.858 639.144V650.572L841.001 656.858H851.858L858.144 650.572V639.144L865.573 620.858L869.001 607.143V595.143L865.573 589.429L862.716 595.143Z" stroke="#BDBDBD" stroke-opacity="0.7" stroke-width="1.94293" stroke-dasharray="1.3 1.3"/>
<path d="M1266.71 748.286L1270.71 738.572H1279.86L1284.43 742L1279.86 748.286L1270.71 751.715L1266.71 748.286Z" stroke="#BDBDBD" stroke-opacity="0.7" stroke-width="1.94293" stroke-dasharray="1.3 1.3"/>
<path d="M1211.29 693.429L1197 699.715H1178.14L1170.14 704.286L1161.57 708.857L1157.57 704.286V699.715L1161.57 687.143V670V652.286L1167.29 642L1187.86 630H1197L1211.29 615.715L1215.29 610.572L1222.72 602.572L1234.72 598.572L1242.72 602.572L1246.72 596.857L1254.14 591.715L1267.86 587.715C1280.2 585.886 1279.1 591.143 1277 594L1270.72 602.572L1277 607.143L1291.86 615.715L1302.14 602.572V594L1308.43 584.857L1311.29 594L1318.72 602.572V618L1323.86 624.857L1332.43 642L1341 652.286V662.572L1336.43 681.429L1327.86 693.429L1318.72 699.715L1311.29 714L1302.14 721.429H1293.57L1289.57 725.429L1283.86 728.857L1277 725.429H1267.86L1261 721.429V714L1258.14 708.857L1252.43 699.715L1246.72 704.286L1239.86 693.429L1232.43 690.572H1226.14L1211.29 693.429Z" stroke="#BDBDBD" stroke-opacity="0.7" stroke-width="1.94293" stroke-dasharray="1.3 1.3"/>
<path d="M1361 767.143H1348.43C1348.43 763.028 1353 757.809 1355.29 755.714L1369.57 748.286L1382.14 744.286L1393 736.857V744.286L1386.14 748.286L1382.14 755.714H1376.43L1369.57 762.571L1361 767.143Z" stroke="#BDBDBD" stroke-opacity="0.7" stroke-width="1.94293" stroke-dasharray="1.3 1.3"/>
<path d="M1409 740.857H1401.57L1404.43 732.857V726.572L1412.43 723.143L1415.86 711.143L1419.29 719.714L1424.43 726.572L1415.86 732.857L1409 740.857Z" stroke="#BDBDBD" stroke-opacity="0.7" stroke-width="1.94293" stroke-dasharray="1.3 1.3"/>
<path d="M381.001 807.143L365.572 798.571H354.715L339.858 792.286L332.429 780.286L322.715 766.571L326.715 761.429V754L322.715 746.571L314.715 736.286V726L311.858 698.571L307.858 674V651.143V630L296.429 616.857L282.144 607.714L273.001 595.143L263.858 580.286L255.858 561.428L249.572 558.571V545.428L255.858 540.286L249.572 532.857L255.858 520.857L263.858 508.286L267.858 502.571V494.571L263.858 480.857V476.857L267.858 480.857L273.001 476.857L278.715 470H285.001L290.715 462.571H296.429L299.287 472.857L296.429 480.857L290.715 472.857L303.287 465.428H311.858L317.001 470L326.144 472.857L337.001 470L343.858 472.857L357.001 488.857L362.715 494.571H371.858L385.001 498.571L390.715 508.286L394.715 516.857V523.714L401.572 527.714L407.858 532.857H415.858L419.858 535.714L427.858 540.286H439.858L449.572 545.428L460.429 551.714L466.715 554.571V561.428V571.143L457.572 586L449.572 595.143V607.714V625.429L439.858 642L431.858 644.857L419.858 651.143L411.287 659.143V667.143L407.858 682.571L398.144 698.571L390.715 705.429H383.858H377.572L381.001 711.714V720.857L373.572 726H365.572V736.286H354.715V742.571L359.287 746.571L354.715 756.857V761.429V766.571L359.287 773.429V780.286L354.715 787.143L359.287 792.286L354.715 807.143H362.715L369.572 810L381.001 807.143Z" stroke="#BDBDBD" stroke-opacity="0.7" stroke-width="1.94293" stroke-dasharray="1.3 1.3"/>
<path d="M1337 568.858L1349.57 580.858L1345.57 584.858L1337 580.858L1327.29 572.286L1321.57 568.858H1315.29L1311.29 575.143L1299.86 572.286L1293.57 568.858H1287.86L1293.57 560.286L1287.86 555.143L1271.86 548.857L1263.29 546V540.286L1257.57 530.572H1271.86V535.143L1278.14 546L1283.86 540.286L1293.57 535.143L1303.86 540.286L1321.57 546L1333.57 555.143L1337 568.858Z" stroke="#BDBDBD" stroke-opacity="0.7" stroke-width="1.94293" stroke-dasharray="1.3 1.3"/>
<path d="M1175.29 504.286L1163.86 512.857L1152.43 518.571L1154.71 531.714L1160.43 540.857L1175.29 546.571H1186.71V540.857L1195.29 528.857L1198.71 524.286V516.286L1195.29 509.429L1198.71 499.714L1195.29 494H1186.71L1175.29 504.286Z" stroke="#BDBDBD" stroke-opacity="0.7" stroke-width="1.94293" stroke-dasharray="1.3 1.3"/>
<path d="M1166.72 560.286L1179.29 567.714L1173 571.143L1160.43 567.714H1150.72H1139.29L1136.43 560.286H1146.14H1155.86H1166.72Z" stroke="#BDBDBD" stroke-opacity="0.7" stroke-width="1.94293" stroke-dasharray="1.3 1.3"/>
<path d="M1137 542.572V551.144C1137 558.001 1129 557.048 1125 555.715L1117 547.144L1109.57 531.144L1098.14 514.572L1088.43 505.429V497.429L1107.29 505.429L1113 514.572L1125 523.143V528.858L1137 542.572Z" stroke="#BDBDBD" stroke-opacity="0.7" stroke-width="1.94293" stroke-dasharray="1.3 1.3"/>
<path d="M1198.71 445.428L1201.57 434C1202.71 429.428 1206.24 432.095 1207.86 434V445.428L1214.14 450.571L1221 461.428L1230.71 472.857L1234.71 483.714V496.285H1226.71L1221 490L1214.14 475.714L1207.86 461.428L1198.71 445.428Z" stroke="#BDBDBD" stroke-opacity="0.7" stroke-width="1.94293" stroke-dasharray="1.3 1.3"/>
<path d="M1114.71 510.001L1109.57 494.572L1099.86 479.715V462.001L1106.71 468.858V476.287L1109.57 482.572L1114.71 488.858L1124.43 494.572L1128.43 504.287V518.001H1124.43L1114.71 510.001Z" stroke="#BDBDBD" stroke-opacity="0.7" stroke-width="0.647643"/>
<path d="M1065.57 419.715L1060.43 410L1042.72 412.857L1038.72 424.286L1029.57 430.572L1012.43 446.572L1009.57 455.715V473.429C1008.2 484.4 1000.62 482.572 997.001 480.286L986.715 459.715L974.144 430.572V416.286H966.715H958.715V407.143H950.144L940.429 393.429L934.144 398.572L918.144 393.429H903.858L895.287 386.572L875.287 384.286L866.144 373.429L859.858 368.286L855.858 373.429L862.715 381.429L866.144 393.429H875.287L881.572 401.429L891.858 393.429L897.572 398.572L909.572 407.143V416.286L900.429 430.572L888.429 436.286L875.287 443.715L862.715 450.572L853.001 459.715H841.001L835.286 450.572V440.286L829.001 430.572L818.144 419.715V410L801.001 390L795.858 376.286L789.572 381.429L782.715 362.572H793.001L795.858 348.857V336.286L786.144 339.715L773.572 336.286H759.858L752.429 321.429V316.286H745.572L738.715 321.429L742.144 329.429L738.715 336.286L730.715 332.286L733.572 326.572L723.858 321.429L719.858 306.572L709.572 300.286L694.715 290C688.315 284.057 690.144 290.572 691.858 294.572L699.286 303.143C705.191 307.524 716.086 316.286 712.429 316.286C708.772 316.286 709.001 325.048 709.572 329.429L699.286 316.286L683.286 303.143L675.286 297.429L661.001 303.143H653.001L647.858 312.286L635.858 321.429V332.286L621.572 336.286H608.429L598.144 329.429L602.144 303.143H625.572L630.715 297.429V285.429L621.572 275.143L635.858 272.286L647.858 265.429L663.858 252.857H670.144L675.286 247.715V236.857L681.572 231.715V239.143L689.001 236.857V228.857L683.286 224.857L675.286 228.857L666.715 224.857V210L691.858 191.143L709.572 178L723.858 170H748.429L763.286 178L786.144 180.857C793.458 186.8 789.191 190.191 786.144 191.143H777.001L763.286 186.572L777.001 198H786.144L793.001 191.143L801.001 186.572L804.429 180.857L814.144 186.572L829.001 180.857H848.429L868.429 178H881.001L874.144 170L877.001 164.286H889.001L897.001 170L909.001 164.286L918.144 158.572H930.715V152.286L949.572 147.714H961.572L967.858 143.143H978.715L989.572 147.714H1005.57L1009.57 152.286L1005.57 158.572L1026.72 161.429H1031.29H1041.57H1051.29H1069.57L1090.14 170H1102.14H1111.86L1114.72 161.429L1133.57 164.286L1155.86 170H1175.29H1188.43L1203.29 178H1231.29L1236.43 174.572H1250.14L1271.29 178L1290.14 183.715L1302.14 188.286H1315.29L1323.29 196.857H1306.72L1298.14 191.143L1290.14 196.857L1302.14 202.572V208.857L1290.14 217.429H1278.14C1266.26 220.629 1268.62 226 1271.29 228.286L1281 232.286L1283.86 247.143V262.572H1278.14L1263.29 247.143L1253.57 232.286L1258.14 213.429L1253.57 208.857L1246.72 213.429H1239.29H1231.29V223.143H1217.57H1197L1188.43 228.286L1182.72 242L1191.86 247.143H1201L1213.57 252.286H1220.43L1231.29 262.572L1239.29 270.572V276.857L1242.72 288.286L1236.43 284.857L1231.29 276.857L1223.29 265.429H1220.43L1223.29 276.857V288.286L1217.57 302H1208.43L1203.29 306.572L1201 313.429V318.572L1203.29 324.286L1213.57 331.715L1217.57 339.715L1213.57 346H1203.29L1201 335.715L1188.43 327.143L1182.72 318.572C1175.4 322.686 1172.81 320.286 1172.43 318.572L1165.57 313.429L1155.86 324.286L1165.57 331.715H1172.43L1182.72 335.715L1169.57 344.286L1182.72 356.286L1188.43 364.857L1191.86 376.857L1188.43 392.286L1182.72 403.715L1169.57 410L1155.86 412.857L1148.43 419.715L1141 412.857L1133.57 418L1130.14 427.143L1141 440.286L1148.43 452.857V467.143L1141 473.429L1135.86 480.286H1130.14V473.429L1120.43 467.143L1109 459.715H1105V467.143L1099.29 459.715L1094.72 446.572L1090.14 440.286L1084.43 443.715H1078.72V436.286L1074.72 427.143L1065.57 419.715Z" stroke="#BDBDBD" stroke-opacity="0.7" stroke-width="1.94293" stroke-dasharray="1.3 1.3"/>
<path d="M1227.29 360.286L1224.43 352.286L1226.14 347.143L1231.29 342H1238.14L1246.14 336.857L1254.14 327.714L1250.71 320.286L1244.43 308.286V300.857V292.286L1251.86 297.429L1262.14 300.857L1259.29 306.571H1251.86V315.143H1257L1262.14 323.143V329.429L1264.43 336.857V346H1254.14L1247.86 352.286L1241 351.143H1235.86L1231.29 348.857L1228.43 351.143L1233 356.286L1231.29 363.143L1227.29 360.286Z" stroke="#BDBDBD" stroke-opacity="0.7" stroke-width="1.94293" stroke-dasharray="1.3 1.3"/>
<path d="M868.429 339.143L854.714 330V316.286L840.429 302V294L854.714 280.857L865.572 289.428L861 294H854.714V302L865.572 307.143H873L877 313.428L868.429 316.286L873 324.286L877 332.857L868.429 339.143Z" stroke="#BDBDBD" stroke-opacity="0.7" stroke-width="1.94293" stroke-dasharray="1.3 1.3"/>
<path d="M779.856 310.571L766.713 315.143L758.713 303.714L762.141 293.429L773.57 284.286L779.856 293.429H788.999V284.286H799.856V293.429L809.57 299.714L818.713 310.571L809.57 315.143L795.284 310.571H779.856Z" stroke="#BDBDBD" stroke-opacity="0.7" stroke-width="1.94293" stroke-dasharray="1.3 1.3"/>
<path d="M634.143 240.286L643.858 254.572L647.858 258L643.858 263.143L630.143 267.143H619.286L622.715 258V254.572L630.143 246.572L622.715 240.286V235.143V229.429H630.143L634.143 240.286Z" stroke="#BDBDBD" stroke-opacity="0.7" stroke-width="1.94293" stroke-dasharray="1.3 1.3"/>
<path d="M602.715 248.286L611.858 244.286C619.172 241.086 617.572 245.62 615.858 248.286L611.858 256.858L602.715 261.429V248.286Z" stroke="#BDBDBD" stroke-opacity="0.7" stroke-width="1.94293" stroke-dasharray="1.3 1.3"/>
<path d="M562.714 196.857L575.285 192.857H589.571L595.857 196.857L583.285 204.286H569.571L562.714 196.857Z" stroke="#BDBDBD" stroke-opacity="0.7" stroke-width="1.94293" stroke-dasharray="1.3 1.3"/>
<path d="M458.142 192.286L463.856 183.143C471.628 179.943 471.666 173.428 470.714 170.571L463.856 158L451.285 147.714H441.571L431.856 143.714V137.428H451.285L463.856 131.143L481.571 127.714L509.571 131.143L526.714 124.857H559.857H583.285L596.999 131.143L588.428 143.714L583.285 153.428L572.428 158L563.857 163.143L572.428 170.571L563.857 175.143L547.856 180.286L536.428 183.143L526.714 187.143L509.571 192.286L493.571 200.857L481.571 217.428H470.714L458.142 208.286V192.286Z" stroke="#BDBDBD" stroke-opacity="0.7" stroke-width="1.94293" stroke-dasharray="1.3 1.3"/>
<path d="M396.429 134L385.571 143.714L399.286 148.857L410.143 143.714L423.857 139.143L449 134L465.571 122L435.857 125.429H415.857V134H410.143H396.429Z" stroke="#BDBDBD" stroke-opacity="0.7" stroke-width="1.94293" stroke-dasharray="1.3 1.3"/>
<path d="M369.572 159.143H358.143L346.715 165.429L358.143 172.286H369.572H382.715L393.001 184.857V188.857H382.715L375.858 196.857L382.715 205.429L396.429 209.429L405.001 201.429V192.857H409.572C422.372 196.057 422.143 191.524 420.429 188.857L413.572 179.715L405.001 169.429L396.429 165.429H389.572L382.715 162L369.572 159.143Z" stroke="#BDBDBD" stroke-opacity="0.7" stroke-width="1.94293" stroke-dasharray="1.94 1.94"/>
<path d="M247.856 155.143L239.285 159.143L228.999 163.143L232.428 169.429L239.285 163.143H250.713L255.285 169.429L247.856 178.572H258.142H264.999H274.142L284.428 176.286L296.428 174.572V169.429V163.143H292.428H287.285L282.142 159.143L276.428 163.143L268.999 159.143L258.142 155.143H247.856Z" stroke="#BDBDBD" stroke-opacity="0.7" stroke-width="1.94293" stroke-dasharray="1.3 1.3"/>
<path d="M409.571 270L420.428 276.857L409.571 280.286H398.714L393.571 276.857L398.714 272.857L409.571 263.143V270Z" stroke="#BDBDBD" stroke-opacity="0.7" stroke-width="1.94293" stroke-dasharray="1.94 1.94"/>
<path d="M299.286 328.286L319.286 312.857L331.857 308.857L339.857 299.143L353.572 291.714H358.714V299.143H367.286L380.429 291.714L367.286 286L371.857 274H362.143L367.286 264.857H383.286H395.857L408.429 258.571L417 250.571L408.429 247.714L402.143 238.571L398.714 219.143L383.286 227.714L377.572 219.143V212.857L358.714 207.143L349 212.857L343.286 224.857V232.857L331.857 243.143L322.143 247.714V255.143L313.572 262L307.857 255.143L311.286 241.428L299.286 238.571L291.857 232.857L280.429 224.857L287.857 212.857L303.286 207.143L313.572 201.428L326.714 197.428L334.714 192.857L349 197.428L345.572 204.857L331.857 201.428L339.857 188.286H353.572L362.143 182V175.714H353.572L339.857 182L334.714 175.714L331.857 166.571L322.143 170.571V175.714L313.572 182V175.714H307.857V182H299.286L287.857 184.857L280.429 182L266.714 184.857V188.286L251.286 184.857L235.286 175.714H217H202.143L178.714 182L162.714 175.714L123.286 170.571H106.714L84.4286 175.714L77 179.143C73.381 179.143 66.8286 180.971 69.5715 188.286L60.4286 192.857H49C47.8572 194.571 47.0572 198.686 53 201.428L44.4286 207.143H34.1429L29 216.286L21.5714 219.143L29 224.857L9 241.428L44.4286 227.714L63.8572 219.143H69.5715L87.8572 212.857L103.857 219.143L115.857 227.714L121.571 235.143C119.667 242 115.857 257.543 115.857 264.857C126.143 264.857 133 275.714 127.286 278C122.714 279.828 111.667 292.857 106.714 299.143L93.5715 316.857L97.5715 346.571L106.714 359.143V370L110.714 386L115.857 398L121.571 404.857V386L115.857 375.143V366.571H121.571V379.714L130.714 394L141.571 411.143V424.286L166.714 440.286H189.572L198.143 450.571L213 456.286H218.714L223.857 466L234.143 479.143L248.429 486.571L259.286 479.143H248.429L237 466V444.286H223.857L218.714 440.286L223.857 421.429C225.952 418.381 227.286 413.2 215.857 416.857L207.857 427.714L194.714 432.286L185.572 424.286L179.286 411.143L185.572 390L189.572 379.714L207.857 370L223.857 375.143L237 366.571L245.572 370L255.857 375.143V390L259.286 394L266.714 390V379.714L262.143 366.571L273 359.143L282.143 351.714L296.429 346.571V334L299.286 328.286Z" stroke="#BDBDBD" stroke-opacity="0.7" stroke-width="1.94293" stroke-dasharray="1.3 1.3"/>
<path d="M303.284 431.715H287.284L291.856 422.572H297.57L313.57 426L303.284 431.715Z" stroke="#BDBDBD" stroke-opacity="0.7" stroke-width="1.94293" stroke-dasharray="1.3 1.3"/>
<path d="M263.857 406H245L250.143 410L259.857 415.143L268.429 421.429L286.143 418.571L280.429 415.143L263.857 406Z" stroke="#BDBDBD" stroke-opacity="0.7" stroke-width="1.94293" stroke-dasharray="1.3 1.3"/>
<path d="M255.857 286H271.857L261.572 294.571L255.857 307.143L258.715 312.286L265.572 307.143L271.857 291.714H282.143V300.857L294.143 294.571V286H287.857L282.143 282.571L276.429 276.286H261.572L255.857 286Z" stroke="#BDBDBD" stroke-opacity="0.7" stroke-width="1.94293" stroke-dasharray="1.3 1.3"/>
<path d="M355.856 151.143L383.856 156.286L390.142 151.143H373.571L363.285 146L355.856 151.143Z" stroke="#BDBDBD" stroke-opacity="0.7" stroke-width="1.94293" stroke-dasharray="1.3 1.3"/>
<path d="M386.714 128.857L382.714 136.857H374.714L366.714 134L374.714 128.857H386.714Z" stroke="#BDBDBD" stroke-opacity="0.7" stroke-width="1.94293" stroke-dasharray="1.3 1.3"/>
<path d="M702.144 240.857L707.287 231.143L710.715 224.286L713.573 219.143L707.287 212.286V206L719.287 202L726.715 190.571L734.715 196.857L723.858 206L726.715 216.286H746.144L753.573 219.143L746.144 224.286H734.715V231.143H726.715V240.857L719.287 246H713.573L702.144 250L696.43 246H684.43L691.858 240.857H702.144Z" stroke="#BDBDBD" stroke-opacity="0.7" stroke-width="1.94293" stroke-dasharray="1.3 1.3"/>
<path d="M1198.71 542L1203.86 528.857C1201.11 524.743 1205 520.667 1207.29 519.143C1207.29 516.4 1222.14 518 1229.57 519.143C1229.57 528.286 1218.91 525.238 1213.57 522.571L1209.57 526.571L1211.29 532.286H1219.86L1213.57 537.429L1217 545.429L1213.57 549.429L1209.57 542L1207.29 545.429V555.714L1198.71 554V542Z" stroke="#BDBDBD" stroke-opacity="0.7" stroke-width="1.94293" stroke-dasharray="1.3 1.3"/>
<g filter="url(#filter1_f_3756_8701)">
<path fill-rule="evenodd" clip-rule="evenodd" d="M187.498 262.658C259.491 278.815 294.142 358.899 359.323 393.484C442.403 437.567 563.881 412.793 616.896 490.501C670.57 569.175 662.348 686.23 615.69 769.262C571.138 848.546 465.65 859.849 385.365 902.529C319.224 937.691 260.941 982.189 187.498 996.894C98.6399 1014.69 -8.0351 1053.22 -77.7057 995.249C-147.871 936.864 -124.487 824.283 -129.501 733.119C-133.24 665.143 -115.125 602.642 -102.983 535.656C-88.3601 454.978 -110.976 357.486 -51.2409 301.346C8.98975 244.741 106.863 244.562 187.498 262.658Z" fill="#F2994A"/>
</g>
</g>
<defs>
<filter id="filter0_f_3756_8701" x="-56" y="-998" width="2560" height="2568" filterUnits="userSpaceOnUse" color-interpolation-filters="sRGB">
<feFlood flood-opacity="0" result="BackgroundImageFix"/>
<feBlend mode="normal" in="SourceGraphic" in2="BackgroundImageFix" result="shape"/>
<feGaussianBlur stdDeviation="475" result="effect1_foregroundBlur_3756_8701"/>
</filter>
<filter id="filter1_f_3756_8701" x="-1080" y="-698" width="2684" height="2674" filterUnits="userSpaceOnUse" color-interpolation-filters="sRGB">
<feFlood flood-opacity="0" result="BackgroundImageFix"/>
<feBlend mode="normal" in="SourceGraphic" in2="BackgroundImageFix" result="shape"/>
<feGaussianBlur stdDeviation="475" result="effect1_foregroundBlur_3756_8701"/>
</filter>
<clipPath id="clip0_3756_8701">
<rect width="1440" height="741" fill="white"/>
</clipPath>
</defs>
</svg>
