<svg width="161" height="44" viewBox="0 0 161 44" fill="none" xmlns="http://www.w3.org/2000/svg">
<g filter="url(#filter0_d_3756_8511)">
<g clip-path="url(#clip0_3756_8511)">
<path d="M5.76147 0H38.4304V8.10669H20.2443L28.054 17.8641L20.2443 27.5848H38.4304V35.5814H5.76147C4.29485 35.5814 3.48821 33.8941 4.40484 32.7569L16.3578 17.7907L4.36818 2.8245C3.48821 1.68737 4.29485 0 5.76147 0Z" fill="#9A0536"/>
<path d="M58.1917 18.891L51.2252 27.6213H44.3321L50.6019 19.7713L52.1419 17.8639L50.6019 15.9564L44.3321 8.06982H51.2986L58.1917 16.6901C58.6683 17.3503 58.6683 18.2674 58.1917 18.891Z" fill="#9A0536"/>
<path d="M46.2014 17.8272L38.3917 27.5846H20.2423L28.0154 17.8272L20.2423 8.06982H38.3917L46.2014 17.8272Z" fill="#2D2D2D"/>
</g>
<path d="M95.9063 4.84815L92.8336 20.505H88.4956L90.1998 11.732L84.674 18.8487H82.6083L79.613 11.732L77.8571 20.505H73.5449L76.721 4.51172C76.7984 4.14942 77.1341 3.86475 77.5214 3.86475H80.1036C80.4393 3.86475 80.7491 4.07178 80.8524 4.38233L84.5449 13.4918L91.8523 4.1753C92.0073 3.96826 92.2397 3.86475 92.4979 3.86475H95.1059C95.6223 3.86475 96.0096 4.33057 95.9063 4.84815Z" fill="#9A0536"/>
<path d="M99.5217 19.9874C98.5147 19.4957 97.7401 18.8228 97.172 17.9429C96.6297 17.0631 96.3457 16.0279 96.3457 14.8633C96.3457 13.4659 96.6814 12.1978 97.3527 11.0591C98.0241 9.94631 98.9795 9.04054 100.167 8.39356C101.355 7.74658 102.724 7.41016 104.221 7.41016C105.59 7.41016 106.778 7.64307 107.785 8.13477C108.792 8.62647 109.566 9.29933 110.134 10.1792C110.677 11.0591 110.961 12.0943 110.961 13.2588C110.961 14.6563 110.625 15.9503 109.954 17.0631C109.282 18.2017 108.327 19.0816 107.139 19.7286C105.951 20.3756 104.583 20.712 103.085 20.712C101.717 20.712 100.529 20.4791 99.5217 19.9874ZM105.538 16.0796C106.106 15.4068 106.39 14.5528 106.39 13.4917C106.39 12.7412 106.184 12.1201 105.745 11.6802C105.306 11.2403 104.738 11.0073 103.963 11.0073C103.059 11.0073 102.336 11.3438 101.768 12.0166C101.2 12.6895 100.916 13.5435 100.916 14.6304C100.916 15.3809 101.123 15.9761 101.562 16.4161C102.001 16.856 102.569 17.0631 103.343 17.0631C104.247 17.0631 104.97 16.7525 105.538 16.0796Z" fill="#9A0536"/>
<path d="M127.589 8.60065L125.214 20.505H120.953L121.211 19.1852C120.669 19.7028 120.049 20.091 119.352 20.3497C118.655 20.6085 117.958 20.7379 117.235 20.7379C115.841 20.7379 114.704 20.3497 113.878 19.5993C113.052 18.8488 112.639 17.7618 112.639 16.3385C112.639 15.8209 112.69 15.2774 112.794 14.734L114.085 8.2901C114.162 7.90191 114.498 7.64312 114.885 7.64312H117.726C118.242 7.64312 118.629 8.10894 118.526 8.62652L117.39 14.3199C117.338 14.6305 117.287 14.9151 117.287 15.1998C117.287 16.3126 117.855 16.8819 119.017 16.8819C119.791 16.8819 120.437 16.649 120.927 16.1573C121.444 15.6656 121.779 14.9669 121.96 14.0094L123.096 8.2901C123.174 7.90191 123.51 7.64312 123.897 7.64312H126.737C127.305 7.61724 127.693 8.08306 127.589 8.60065Z" fill="#9A0536"/>
<path d="M143.443 8.85938L136.368 20.4791H131.694L129.19 8.60059C129.086 8.08301 129.474 7.61719 129.99 7.61719H132.753C133.14 7.61719 133.476 7.90186 133.553 8.29004L134.999 15.5103L139.518 8.00537C139.673 7.77246 139.931 7.61719 140.215 7.61719H142.746C143.391 7.61719 143.779 8.31592 143.443 8.85938Z" fill="#9A0536"/>
<path d="M156.045 15.1739H147.291C147.446 16.5714 148.428 17.2701 150.209 17.2701C150.777 17.2701 151.32 17.1924 151.862 17.0113C152.404 16.8301 152.869 16.5714 153.308 16.2349L155.193 19.0557C153.695 20.1685 151.862 20.712 149.719 20.712C148.35 20.712 147.162 20.4791 146.129 19.9874C145.097 19.4957 144.296 18.8228 143.728 17.9429C143.16 17.0631 142.876 16.0279 142.876 14.8375C142.876 13.44 143.212 12.146 143.857 11.0332C144.503 9.89455 145.432 9.01466 146.62 8.36768C147.808 7.72071 149.151 7.41016 150.674 7.41016C151.965 7.41016 153.075 7.64307 154.031 8.10889C154.986 8.57471 155.709 9.24757 156.226 10.1016C156.742 10.9556 157 11.939 157 13.0777C157 13.5176 156.949 13.9834 156.871 14.501C156.794 14.8892 156.458 15.1739 156.045 15.1739ZM148.634 11.1885C148.144 11.5767 147.782 12.1201 147.575 12.793H152.869C152.895 12.1201 152.662 11.5767 152.223 11.1885C151.784 10.8003 151.19 10.6192 150.467 10.6192C149.719 10.6192 149.125 10.8003 148.634 11.1885Z" fill="#9A0536"/>
<path d="M74.6035 24.5161H75.8687L74.7326 30.2095H78.2443L78.0377 31.2706H73.2607L74.6035 24.5161Z" fill="#9A0536"/>
<path d="M84.3892 30.9864C83.8986 30.7535 83.5371 30.417 83.2789 29.9771C83.0207 29.5371 82.8916 29.0454 82.8916 28.4761C82.8916 27.7256 83.0724 27.0269 83.408 26.4058C83.7437 25.7847 84.2343 25.293 84.854 24.9565C85.4737 24.5942 86.1968 24.4131 87.023 24.4131C87.6944 24.4131 88.2625 24.5425 88.7531 24.7754C89.2437 25.0083 89.6052 25.3447 89.8634 25.7847C90.1216 26.2246 90.2507 26.7163 90.2507 27.2857C90.2507 28.0362 90.07 28.7349 89.7343 29.356C89.3986 29.9771 88.908 30.4688 88.2883 30.8052C87.6686 31.1675 86.9456 31.3487 86.1193 31.3487C85.4479 31.3487 84.8799 31.2452 84.3892 30.9864ZM87.6686 29.8736C88.0817 29.6148 88.4174 29.2525 88.6498 28.8125C88.8822 28.3726 88.9855 27.8809 88.9855 27.3633C88.9855 26.794 88.8047 26.354 88.4432 26.0176C88.0817 25.6812 87.5653 25.5 86.9198 25.5C86.3775 25.5 85.8869 25.6294 85.4737 25.8882C85.0606 26.147 84.7249 26.5093 84.5184 26.9492C84.286 27.3892 84.1827 27.8809 84.1827 28.3985C84.1827 28.9678 84.3634 29.4077 84.7249 29.7442C85.0864 30.0806 85.6029 30.2618 86.2484 30.2618C86.7648 30.2618 87.2554 30.1324 87.6686 29.8736Z" fill="#9A0536"/>
<path d="M100.012 27.8032H101.2L100.632 30.5205C100.297 30.7793 99.9092 30.9864 99.4702 31.1416C99.0313 31.2969 98.5923 31.3487 98.1275 31.3487C97.4562 31.3487 96.8881 31.2193 96.3975 30.9864C95.9069 30.7535 95.5196 30.417 95.2613 29.9771C95.0031 29.5371 94.874 29.0454 94.874 28.4761C94.874 27.7256 95.0548 27.0269 95.3905 26.4058C95.7261 25.7847 96.2167 25.293 96.8623 24.9565C97.5078 24.5942 98.2308 24.4131 99.0571 24.4131C99.6768 24.4131 100.193 24.5166 100.658 24.6978C101.123 24.8789 101.484 25.1636 101.768 25.5259L100.865 26.2764C100.658 26.0176 100.4 25.8106 100.09 25.707C99.7801 25.5776 99.4186 25.5259 99.0055 25.5259C98.4374 25.5259 97.921 25.6553 97.5078 25.9141C97.0689 26.1729 96.7332 26.5093 96.5008 26.9492C96.2684 27.3892 96.1393 27.8809 96.1393 28.4243C96.1393 28.9937 96.32 29.4595 96.7074 29.7959C97.0689 30.1324 97.6111 30.2876 98.3083 30.2876C98.7731 30.2876 99.212 30.1841 99.6252 29.9771L100.012 27.8032Z" fill="#9A0536"/>
<path d="M107.345 24.5161H108.585L107.242 31.2706H105.977L107.345 24.5161Z" fill="#9A0536"/>
<path d="M113.619 31.1412C113.154 30.9859 112.767 30.8047 112.509 30.5718L113.051 29.5884C113.335 29.8213 113.671 30.0025 114.058 30.1319C114.445 30.2613 114.833 30.3389 115.246 30.3389C115.736 30.3389 116.124 30.2613 116.434 30.0801C116.718 29.899 116.873 29.666 116.873 29.3814C116.873 29.2261 116.821 29.0708 116.692 28.9673C116.563 28.8638 116.434 28.7603 116.253 28.6826C116.072 28.605 115.84 28.5274 115.504 28.4497C115.065 28.3203 114.704 28.1909 114.445 28.0874C114.187 27.958 113.955 27.8028 113.748 27.544C113.567 27.3111 113.464 27.0005 113.464 26.6123C113.464 26.1724 113.593 25.7842 113.826 25.4736C114.084 25.1372 114.42 24.9043 114.859 24.7231C115.298 24.542 115.814 24.4644 116.382 24.4644C116.821 24.4644 117.234 24.5161 117.621 24.6196C118.009 24.7231 118.344 24.8525 118.628 25.0337L118.138 26.0171C117.88 25.8618 117.596 25.7324 117.286 25.6289C116.976 25.5513 116.64 25.4995 116.305 25.4995C115.814 25.4995 115.401 25.603 115.117 25.7842C114.833 25.9653 114.678 26.1983 114.678 26.5088C114.678 26.69 114.729 26.8194 114.859 26.9487C114.988 27.0523 115.117 27.1558 115.298 27.2334C115.478 27.3111 115.736 27.3887 116.046 27.4922C116.459 27.6216 116.821 27.7251 117.079 27.8545C117.337 27.958 117.57 28.1392 117.776 28.3721C117.957 28.605 118.06 28.8897 118.06 29.252C118.06 29.6919 117.931 30.0801 117.699 30.4165C117.441 30.753 117.105 30.9859 116.64 31.167C116.175 31.3482 115.659 31.4258 115.091 31.4258C114.6 31.3482 114.084 31.2964 113.619 31.1412Z" fill="#9A0536"/>
<path d="M125.214 25.5772H122.993L123.2 24.5161H128.906L128.7 25.5772H126.453L125.343 31.2706H124.078L125.214 25.5772Z" fill="#9A0536"/>
<path d="M133.709 24.5161H134.948L133.606 31.2706H132.366L133.709 24.5161Z" fill="#9A0536"/>
<path d="M140.939 30.9864C140.448 30.7535 140.061 30.417 139.802 29.9771C139.544 29.5371 139.415 29.0454 139.415 28.4761C139.415 27.7256 139.596 27.0269 139.931 26.4058C140.267 25.7847 140.758 25.293 141.403 24.9565C142.023 24.5942 142.746 24.4131 143.572 24.4131C144.166 24.4131 144.683 24.5166 145.122 24.6978C145.561 24.8789 145.896 25.1636 146.129 25.5259L145.225 26.2764C144.838 25.7588 144.269 25.4741 143.495 25.4741C142.927 25.4741 142.436 25.6035 142.023 25.8623C141.61 26.1211 141.274 26.4575 141.042 26.8975C140.809 27.3374 140.706 27.8291 140.706 28.3467C140.706 28.916 140.887 29.3819 141.248 29.7183C141.61 30.0547 142.126 30.21 142.798 30.21C143.572 30.21 144.218 29.9512 144.708 29.4336L145.431 30.2359C145.122 30.5982 144.708 30.8829 144.244 31.064C143.779 31.2452 143.262 31.3228 142.694 31.3228C142.023 31.3487 141.429 31.2452 140.939 30.9864Z" fill="#9A0536"/>
<path d="M150.803 31.1412C150.338 30.9859 149.951 30.8047 149.692 30.5718L150.235 29.5884C150.519 29.8213 150.854 30.0025 151.242 30.1319C151.629 30.2613 152.016 30.3389 152.429 30.3389C152.92 30.3389 153.307 30.2613 153.617 30.0801C153.901 29.899 154.056 29.666 154.056 29.3814C154.056 29.2261 154.005 29.0708 153.875 28.9673C153.746 28.8638 153.617 28.7603 153.437 28.6826C153.256 28.605 153.023 28.5274 152.688 28.4497C152.249 28.3203 151.887 28.1909 151.629 28.0874C151.371 27.958 151.138 27.8028 150.932 27.544C150.751 27.3111 150.648 27.0005 150.648 26.6123C150.648 26.1724 150.777 25.7842 151.009 25.4736C151.267 25.1372 151.603 24.9043 152.042 24.7231C152.481 24.542 152.998 24.4644 153.566 24.4644C154.005 24.4644 154.418 24.5161 154.805 24.6196C155.192 24.7231 155.528 24.8525 155.812 25.0337L155.321 26.0171C155.063 25.8618 154.779 25.7324 154.469 25.6289C154.16 25.5513 153.824 25.4995 153.488 25.4995C152.998 25.4995 152.584 25.603 152.3 25.7842C152.016 25.9653 151.861 26.1983 151.861 26.5088C151.861 26.69 151.913 26.8194 152.042 26.9487C152.171 27.0523 152.3 27.1558 152.481 27.2334C152.662 27.3111 152.92 27.3887 153.23 27.4922C153.643 27.6216 154.005 27.7251 154.263 27.8545C154.521 27.958 154.753 28.1392 154.96 28.3721C155.141 28.605 155.244 28.8897 155.244 29.252C155.244 29.6919 155.115 30.0801 154.883 30.4165C154.624 30.753 154.289 30.9859 153.824 31.167C153.359 31.3482 152.843 31.4258 152.275 31.4258C151.784 31.3482 151.267 31.2964 150.803 31.1412Z" fill="#9A0536"/>
</g>
<defs>
<filter id="filter0_d_3756_8511" x="0" y="0" width="161" height="43.5813" filterUnits="userSpaceOnUse" color-interpolation-filters="sRGB">
<feFlood flood-opacity="0" result="BackgroundImageFix"/>
<feColorMatrix in="SourceAlpha" type="matrix" values="0 0 0 0 0 0 0 0 0 0 0 0 0 0 0 0 0 0 127 0" result="hardAlpha"/>
<feOffset dy="4"/>
<feGaussianBlur stdDeviation="2"/>
<feComposite in2="hardAlpha" operator="out"/>
<feColorMatrix type="matrix" values="0 0 0 0 0 0 0 0 0 0 0 0 0 0 0 0 0 0 0.25 0"/>
<feBlend mode="normal" in2="BackgroundImageFix" result="effect1_dropShadow_3756_8511"/>
<feBlend mode="normal" in="SourceGraphic" in2="effect1_dropShadow_3756_8511" result="shape"/>
</filter>
<clipPath id="clip0_3756_8511">
<rect width="54.5582" height="35.5814" fill="white" transform="translate(4)"/>
</clipPath>
</defs>
</svg>
